<svg width="67" height="67" viewBox="0 0 67 67" fill="none" xmlns="http://www.w3.org/2000/svg">
<circle opacity="0.2" cx="33.5" cy="33.5" r="29.5" fill="white" stroke="#74DED8" stroke-width="8"/>
<circle opacity="0.5" cx="33.5" cy="33.5" r="20.5" fill="white" stroke="#56D8C1" stroke-width="7"/>
<path d="M30.1 41.15L40.3 33.5L30.1 25.85V41.15ZM33.5 16.5C24.116 16.5 16.5 24.116 16.5 33.5C16.5 42.884 24.116 50.5 33.5 50.5C42.884 50.5 50.5 42.884 50.5 33.5C50.5 24.116 42.884 16.5 33.5 16.5ZM33.5 47.1C26.003 47.1 19.9 40.997 19.9 33.5C19.9 26.003 26.003 19.9 33.5 19.9C40.997 19.9 47.1 26.003 47.1 33.5C47.1 40.997 40.997 47.1 33.5 47.1Z" fill="#90A0B7"/>
</svg>
